<svg width="49" height="48" viewBox="0 0 49 48" fill="none" xmlns="http://www.w3.org/2000/svg">
<path fill-rule="evenodd" clip-rule="evenodd" d="M35.0879 25.0886C32.3888 26.1708 29.4753 26.8383 26.4281 27.0112C25.9026 27.041 25.3731 27.0562 24.84 27.0562C24.3069 27.0562 23.7774 27.041 23.2519 27.0112C20.204 26.8382 17.2899 26.1705 14.5903 25.0878C8.92492 22.8158 4.20417 18.7165 1.17334 13.5281C5.89741 5.44098 14.7271 0 24.84 0C34.9529 0 43.7826 5.44098 48.5067 13.5281C45.4755 18.7171 40.754 22.8167 35.0879 25.0886Z" fill="white"/>
<path d="M14.5899 27.1939C13.9372 26.9321 13.2971 26.6461 12.6707 26.337C10.6347 27.7573 8.91365 29.5261 7.61768 31.5442C9.82049 34.9745 13.2515 37.6846 17.3691 39.1867C19.3312 39.9025 21.4492 40.344 23.6644 40.4583H25.9729C28.1876 40.344 32.0803 42.5168 26.4277 47.9999C30.5459 46.4979 39.8165 34.9748 42.0196 31.5442C40.7273 29.5319 39.0123 27.7673 36.984 26.3492C36.3648 26.6539 35.7323 26.9361 35.0875 27.1946C32.3884 28.2768 29.475 28.9443 26.4277 29.1173C25.9022 29.1471 25.3727 29.1622 24.8397 29.1622C24.3066 29.1622 23.7771 29.1471 23.2516 29.1173C20.2036 28.9443 17.2895 28.2765 14.5899 27.1939Z" fill="white"/>
<rect x="13.4277" y="10.0675" width="22.8741" height="8.08988" rx="4.04494" fill="#162550"/>
<ellipse cx="31.1725" cy="14.0675" rx="1.49771" ry="1.48315" fill="#04FED1"/>
<ellipse cx="24.8185" cy="34.0224" rx="1.49771" ry="1.48315" fill="#162550"/>
<ellipse cx="18.8288" cy="14.0675" rx="1.49771" ry="1.48315" fill="#04FED1"/>
<ellipse cx="18.8288" cy="34.0224" rx="1.49771" ry="1.48315" fill="#162550"/>
<ellipse cx="30.8102" cy="34.0224" rx="1.49771" ry="1.48315" fill="#162550"/>
</svg>
